<svg width="43" height="53" viewBox="0 0 43 53" fill="currentColor" xmlns="http://www.w3.org/2000/svg">
<path d="M19.625 30.4844H13.2969C13.1726 30.4844 13.0533 30.5338 12.9654 30.6217C12.8775 30.7096 12.8281 30.8288 12.8281 30.9531V33.7656C12.8281 33.8899 12.8775 34.0092 12.9654 34.0971C13.0533 34.185 13.1726 34.2344 13.2969 34.2344H19.625V40.5625C19.625 40.6868 19.6744 40.806 19.7623 40.894C19.8502 40.9819 19.9694 41.0312 20.0938 41.0312H22.9062C23.0306 41.0312 23.1498 40.9819 23.2377 40.894C23.3256 40.806 23.375 40.6868 23.375 40.5625V34.2344H29.7031C29.8274 34.2344 29.9467 34.185 30.0346 34.0971C30.1225 34.0092 30.1719 33.8899 30.1719 33.7656V30.9531C30.1719 30.8288 30.1225 30.7096 30.0346 30.6217C29.9467 30.5338 29.8274 30.4844 29.7031 30.4844H23.375V24.1562C23.375 24.0319 23.3256 23.9127 23.2377 23.8248C23.1498 23.7369 23.0306 23.6875 22.9062 23.6875H20.0938C19.9694 23.6875 19.8502 23.7369 19.7623 23.8248C19.6744 23.9127 19.625 24.0319 19.625 24.1562V30.4844ZM41.5742 13.416C41.9258 13.7676 42.125 14.2422 42.125 14.7402V50.875C42.125 51.9121 41.2871 52.75 40.25 52.75H2.75C1.71289 52.75 0.875 51.9121 0.875 50.875V2.125C0.875 1.08789 1.71289 0.25 2.75 0.25H27.6348C28.1328 0.25 28.6133 0.449219 28.9648 0.800781L41.5742 13.416V13.416ZM37.8008 15.6016L26.7734 4.57422V15.6016H37.8008Z"/>
</svg>
