<?xml version="1.0" encoding="iso-8859-1"?>
<!-- Generator: Adobe Illustrator 19.0.0, SVG Export Plug-In . SVG Version: 6.00 Build 0)  -->
<svg version="1.1" id="Layer_1" xmlns="http://www.w3.org/2000/svg" xmlns:xlink="http://www.w3.org/1999/xlink" x="0px" y="0px"
	 viewBox="0 0 512 512" style="enable-background:new 0 0 512 512;" xml:space="preserve">
<path style="fill:#B4CCCB;" d="M356.974,53.275h-16.366h-18.382h-70.678c-4.61,0-8.348,3.738-8.348,8.348s3.738,8.348,8.348,8.348
	h70.678h18.382h16.366c19.515,0,35.391,15.878,35.391,35.393s-15.876,35.393-35.391,35.393h-16.366h-18.382h-24.713
	c-28.721,0-52.087,23.367-52.087,52.088v59.539c0,4.61,3.738,8.348,8.348,8.348c4.61,0,8.348-3.738,8.348-8.348v-59.539
	c0-19.515,15.876-35.393,35.391-35.393h24.713h18.382h16.366c28.721,0,52.087-23.367,52.087-52.088S385.694,53.275,356.974,53.275z"
	/>
<path style="fill:#547475;" d="M478.75,264.927c-20.543-20.543-48.925-33.251-80.274-33.251h-28.295h-225.38h-31.278
	C50.827,231.676,0,282.503,0,345.2s50.827,113.525,113.525,113.525c21.05,0,40.752-5.744,57.65-15.728l0.004,0.012
	c0,0,78.599-32.319,169.639,0l0.006-0.012c16.9,9.984,36.602,15.728,57.652,15.728C461.174,458.725,512,407.898,512,345.2
	c0-22.478-6.532-43.432-17.803-61.063"/>
<g style="opacity:0.15;">
	<path style="fill:#231F20;" d="M17.809,345.2c0-62.698,50.827-113.525,113.525-113.525h-17.809C50.827,231.676,0,282.503,0,345.2
		s50.827,113.525,113.525,113.525c2.975,0,5.919-0.127,8.835-0.352C63.856,453.798,17.809,404.877,17.809,345.2z"/>
</g>
<circle style="fill:#53CAF9;" cx="394.529" cy="299.409" r="19.478"/>
<circle style="fill:#EFBA00;" cx="394.529" cy="389.688" r="19.478"/>
<circle style="fill:#73C470;" cx="349.384" cy="344.543" r="19.478"/>
<circle style="fill:#F74848;" cx="439.663" cy="344.543" r="19.478"/>
<path style="fill:#B4CCCB;" d="M140.8,330.076h-20.591v-20.591c0-7.376-5.98-13.357-13.357-13.357h-2.226
	c-7.376,0-13.357,5.98-13.357,13.357v20.591H70.678c-7.376,0-13.357,5.98-13.357,13.357v2.226c0,7.377,5.98,13.357,13.357,13.357
	H91.27v20.591c0,7.376,5.98,13.357,13.357,13.357h2.226c7.376,0,13.357-5.98,13.357-13.357v-20.591H140.8
	c7.376,0,13.357-5.979,13.357-13.357v-2.226C154.157,336.057,148.176,330.076,140.8,330.076z"/>
<g>
	<path style="opacity:0.1;fill:#231F20;enable-background:new    ;" d="M221.962,389.953c-4.275-1.725-9.139,0.341-10.866,4.616
		c-8.099,20.059-21.774,36.557-38.837,48.019c3.613-1.372,16.214-5.864,35.014-9.384c7.914-9.549,14.472-20.414,19.305-32.385
		C228.304,396.544,226.237,391.678,221.962,389.953z"/>
	<path style="opacity:0.1;fill:#231F20;enable-background:new    ;" d="M300.903,394.568c-1.725-4.275-6.591-6.339-10.866-4.616
		c-4.275,1.726-6.341,6.591-4.616,10.867c4.835,11.975,11.395,22.842,19.314,32.393c11.402,2.19,23.174,5.276,35.169,9.481
		C322.766,431.226,309.028,414.691,300.903,394.568z"/>
</g>
<path style="fill:#8AACAD;" d="M213.704,231.676v15.479c0,7.376,5.98,13.357,13.357,13.357h52.746
	c7.376,0,13.357-5.98,13.357-13.357v-15.479H213.704z"/>
<path style="opacity:0.1;fill:#231F20;enable-background:new    ;" d="M231.513,247.155v-15.479h-17.809v15.479
	c0,7.376,5.98,13.357,13.357,13.357h17.809C237.493,260.511,231.513,254.531,231.513,247.155z"/>
<g>
</g>
<g>
</g>
<g>
</g>
<g>
</g>
<g>
</g>
<g>
</g>
<g>
</g>
<g>
</g>
<g>
</g>
<g>
</g>
<g>
</g>
<g>
</g>
<g>
</g>
<g>
</g>
<g>
</g>
</svg>
