<svg width="81" height="81" viewBox="0 0 81 81" fill="currentColor" xmlns="http://www.w3.org/2000/svg">
<path d="M40.25 0.25C41.5761 0.25 42.8479 0.776785 43.7855 1.71447C44.7232 2.65215 45.25 3.92392 45.25 5.25V35.25H75.25C76.5761 35.25 77.8479 35.7768 78.7855 36.7145C79.7232 37.6521 80.25 38.9239 80.25 40.25C80.25 41.5761 79.7232 42.8479 78.7855 43.7855C77.8479 44.7232 76.5761 45.25 75.25 45.25H45.25V75.25C45.25 76.5761 44.7232 77.8479 43.7855 78.7855C42.8479 79.7232 41.5761 80.25 40.25 80.25C38.9239 80.25 37.6521 79.7232 36.7145 78.7855C35.7768 77.8479 35.25 76.5761 35.25 75.25V45.25H5.25C3.92392 45.25 2.65215 44.7232 1.71447 43.7855C0.776785 42.8479 0.25 41.5761 0.25 40.25C0.25 38.9239 0.776785 37.6521 1.71447 36.7145C2.65215 35.7768 3.92392 35.25 5.25 35.25H35.25V5.25C35.25 3.92392 35.7768 2.65215 36.7145 1.71447C37.6521 0.776785 38.9239 0.25 40.25 0.25V0.25Z" fill="#D4D4D4"/>
</svg>
